<svg width="18" height="18" viewBox="0 0 18 18" fill="none" xmlns="http://www.w3.org/2000/svg">
<path d="M13 5.00003V3.00003C13 2.4696 12.7893 1.96089 12.4142 1.58582C12.0391 1.21074 11.5304 1.00003 11 1.00003H3C2.46957 1.00003 1.96086 1.21074 1.58579 1.58582C1.21071 1.96089 1 2.4696 1 3.00003V11C1 11.5305 1.21071 12.0392 1.58579 12.4142C1.96086 12.7893 2.46957 13 3 13H5M6.99998 4.99996H15C16.1046 4.99996 17 5.89539 17 6.99996V15C17 16.1045 16.1046 17 15 17H6.99998C5.89541 17 4.99998 16.1045 4.99998 15V6.99996C4.99998 5.89539 5.89541 4.99996 6.99998 4.99996Z" stroke="#B7B9C8" stroke-width="0.5" stroke-linecap="round" stroke-linejoin="round"/>
</svg>
