<svg width="44" height="19" viewBox="0 0 44 19" fill="none" xmlns="http://www.w3.org/2000/svg">
<path d="M2.26562 9.10156V14H0.445312V1.9375H2.50781C3.51823 1.9375 4.28125 2.00781 4.79688 2.14844C5.31771 2.28906 5.77604 2.55469 6.17188 2.94531C6.86458 3.6224 7.21094 4.47656 7.21094 5.50781C7.21094 6.61198 6.84115 7.48698 6.10156 8.13281C5.36198 8.77865 4.36458 9.10156 3.10938 9.10156H2.26562ZM2.26562 7.41406H2.94531C4.61719 7.41406 5.45312 6.77083 5.45312 5.48438C5.45312 4.23958 4.59115 3.61719 2.86719 3.61719H2.26562V7.41406Z" fill="#111862"/>
<path d="M14.4734 10.6094H9.02031C9.06719 11.2344 9.27031 11.7318 9.62969 12.1016C9.98906 12.4661 10.45 12.6484 11.0125 12.6484C11.45 12.6484 11.812 12.5443 12.0984 12.3359C12.3797 12.1276 12.7 11.7422 13.0594 11.1797L14.5437 12.0078C14.3146 12.3984 14.0724 12.7344 13.8172 13.0156C13.562 13.2917 13.2885 13.5208 12.9969 13.7031C12.7052 13.8802 12.3901 14.0104 12.0516 14.0938C11.713 14.1771 11.3458 14.2188 10.95 14.2188C9.81458 14.2188 8.90312 13.8542 8.21562 13.125C7.52812 12.3906 7.18437 11.4167 7.18437 10.2031C7.18437 9 7.51771 8.02604 8.18437 7.28125C8.85625 6.54688 9.74687 6.17969 10.8562 6.17969C11.976 6.17969 12.8615 6.53646 13.5125 7.25C14.1583 7.95833 14.4812 8.9401 14.4812 10.1953L14.4734 10.6094ZM12.6687 9.17188C12.424 8.23438 11.8328 7.76562 10.8953 7.76562C10.6818 7.76562 10.4812 7.79948 10.2937 7.86719C10.1062 7.92969 9.93437 8.02344 9.77812 8.14844C9.62708 8.26823 9.49687 8.41406 9.3875 8.58594C9.27812 8.75781 9.19479 8.95312 9.1375 9.17188H12.6687Z" fill="#111862"/>
<path d="M17.3609 18.1406H15.6031V6.39062H17.3609V7.21875C18.0536 6.52604 18.8401 6.17969 19.7203 6.17969C20.7672 6.17969 21.6292 6.5651 22.3062 7.33594C22.9937 8.10156 23.3375 9.06771 23.3375 10.2344C23.3375 11.375 22.9964 12.3255 22.3141 13.0859C21.637 13.8411 20.7828 14.2188 19.7516 14.2188C18.8609 14.2188 18.0641 13.862 17.3609 13.1484V18.1406ZM21.5406 10.2422C21.5406 9.51302 21.3427 8.91927 20.9469 8.46094C20.5458 7.9974 20.0406 7.76562 19.4312 7.76562C18.7854 7.76562 18.262 7.98958 17.8609 8.4375C17.4599 8.88542 17.2594 9.47396 17.2594 10.2031C17.2594 10.9167 17.4599 11.5052 17.8609 11.9688C18.2568 12.4219 18.7776 12.6484 19.4234 12.6484C20.0328 12.6484 20.5354 12.4193 20.9312 11.9609C21.3375 11.5026 21.5406 10.9297 21.5406 10.2422Z" fill="#111862"/>
<path d="M26.1547 18.1406H24.3969V6.39062H26.1547V7.21875C26.8474 6.52604 27.6339 6.17969 28.5141 6.17969C29.5609 6.17969 30.4229 6.5651 31.1 7.33594C31.7875 8.10156 32.1313 9.06771 32.1313 10.2344C32.1313 11.375 31.7901 12.3255 31.1078 13.0859C30.4307 13.8411 29.5766 14.2188 28.5453 14.2188C27.6547 14.2188 26.8578 13.862 26.1547 13.1484V18.1406ZM30.3344 10.2422C30.3344 9.51302 30.1365 8.91927 29.7406 8.46094C29.3396 7.9974 28.8344 7.76562 28.225 7.76562C27.5792 7.76562 27.0557 7.98958 26.6547 8.4375C26.2536 8.88542 26.0531 9.47396 26.0531 10.2031C26.0531 10.9167 26.2536 11.5052 26.6547 11.9688C27.0505 12.4219 27.5714 12.6484 28.2172 12.6484C28.8266 12.6484 29.3292 12.4193 29.725 11.9609C30.1313 11.5026 30.3344 10.9297 30.3344 10.2422Z" fill="#111862"/>
<path d="M34.9484 0.804688V14H33.1906V0.804688H34.9484Z" fill="#111862"/>
<path d="M43.3047 10.6094H37.8516C37.8984 11.2344 38.1016 11.7318 38.4609 12.1016C38.8203 12.4661 39.2812 12.6484 39.8438 12.6484C40.2812 12.6484 40.6432 12.5443 40.9297 12.3359C41.2109 12.1276 41.5312 11.7422 41.8906 11.1797L43.375 12.0078C43.1458 12.3984 42.9036 12.7344 42.6484 13.0156C42.3932 13.2917 42.1198 13.5208 41.8281 13.7031C41.5365 13.8802 41.2214 14.0104 40.8828 14.0938C40.5443 14.1771 40.1771 14.2188 39.7812 14.2188C38.6458 14.2188 37.7344 13.8542 37.0469 13.125C36.3594 12.3906 36.0156 11.4167 36.0156 10.2031C36.0156 9 36.349 8.02604 37.0156 7.28125C37.6875 6.54688 38.5781 6.17969 39.6875 6.17969C40.8073 6.17969 41.6927 6.53646 42.3438 7.25C42.9896 7.95833 43.3125 8.9401 43.3125 10.1953L43.3047 10.6094ZM41.5 9.17188C41.2552 8.23438 40.6641 7.76562 39.7266 7.76562C39.513 7.76562 39.3125 7.79948 39.125 7.86719C38.9375 7.92969 38.7656 8.02344 38.6094 8.14844C38.4583 8.26823 38.3281 8.41406 38.2188 8.58594C38.1094 8.75781 38.026 8.95312 37.9688 9.17188H41.5Z" fill="#111862"/>
</svg>
