<svg width="38" height="38" viewBox="0 0 38 38" fill="none" xmlns="http://www.w3.org/2000/svg">
<circle cx="19" cy="19" r="18.5" fill="#F5F6FF" stroke="#C9CDFA"/>
<path d="M22.0874 11.7958C22.0874 10.0907 20.705 8.70833 18.9999 8.70833C17.2947 8.70833 15.9124 10.0907 15.9124 11.7958V16.9417C15.9124 18.6468 17.2947 20.0292 18.9999 20.0292C20.705 20.0292 22.0874 18.6468 22.0874 16.9417V11.7958Z" stroke="#9EA6FE" stroke-width="1.5" stroke-linecap="round" stroke-linejoin="round"/>
<path d="M11.7957 16.9417C11.7957 18.8523 12.5547 20.6847 13.9057 22.0358C15.2567 23.3868 17.0892 24.1458 18.9998 24.1458C20.9105 24.1458 22.7429 23.3868 24.0939 22.0358C25.445 20.6847 26.204 18.8523 26.204 16.9417" stroke="#9EA6FE" stroke-width="1.5" stroke-linecap="round" stroke-linejoin="round"/>
<path d="M14.8833 28.2625H23.1166" stroke="#9EA6FE" stroke-width="1.5" stroke-linecap="round" stroke-linejoin="round"/>
<path d="M19 24.1458V28.2625" stroke="#9EA6FE" stroke-width="1.5" stroke-linecap="round" stroke-linejoin="round"/>
</svg>
