<svg width="37" height="37" viewBox="0 0 37 37" fill="none" xmlns="http://www.w3.org/2000/svg">
<rect x="0.5" y="0.5" width="36" height="36" rx="5.5" fill="#F5F6FF" stroke="#C9CDFA"/>
<path d="M27.7546 19.0134H23.1019C23.5474 15.9655 27.5758 16.3694 27.7546 19.0134ZM12.7357 20.0417H9.25V23.1404H12.6848C15.8237 23.1404 15.631 20.0417 12.7357 20.0417ZM12.6124 13.875H9.25V16.9583H12.933C15.5122 16.9583 15.9208 13.875 12.6124 13.875ZM37 0V37H0V0H37ZM21.5833 12.3333H29.2917V10.7917H21.5833V12.3333ZM16.1073 17.9111C19.0473 16.4095 18.9394 10.8965 13.3123 10.8132H6.16667V26.196H12.8128C19.7842 26.196 19.6655 19.2061 16.1073 17.9111ZM30.7331 18.8392C30.3107 16.1212 28.3759 14.2913 25.2093 14.2913C21.9795 14.2913 20.0417 16.3571 20.0417 20.3762C20.0417 24.4323 22.1507 26.2083 25.3095 26.2083C28.4669 26.2083 30.098 24.4585 30.5512 23.125H27.2952C26.159 24.4431 22.8352 23.9282 23.0294 21.0391H30.8287C30.8441 20.0617 30.8117 19.3603 30.7331 18.8392Z" fill="#0038FF"/>
<rect x="0.5" y="0.5" width="36" height="36" rx="5.5" stroke="#C9CDFA"/>
</svg>
