<svg width="37" height="37" viewBox="0 0 37 37" fill="none" xmlns="http://www.w3.org/2000/svg">
<rect x="0.5" y="0.5" width="36" height="36" rx="5.5" fill="#F5F6FF" stroke="#C9CDFA"/>
<path d="M34.9573 0H2.04271C0.914208 0 0 0.914208 0 2.04271V34.9588C0 36.0858 0.914208 37 2.04271 37H19.7642V22.6717H14.9418V17.0878H19.7642V12.97C19.7642 8.19088 22.6825 5.58854 26.9468 5.58854C28.9895 5.58854 30.7439 5.74117 31.2557 5.809V10.804L28.2988 10.8055C25.9802 10.8055 25.5315 11.9078 25.5315 13.5235V17.0894H31.0615L30.3415 22.6733H25.5315V37H34.9604C36.0858 37 37 36.0858 37 34.9573V2.04271C37 0.914208 36.0858 0 34.9573 0V0Z" fill="#43589A"/>
<rect x="0.5" y="0.5" width="36" height="36" rx="5.5" stroke="#C9CDFA"/>
</svg>
