<svg width="37" height="37" viewBox="0 0 37 37" fill="none" xmlns="http://www.w3.org/2000/svg">
<path d="M0 0V37H37V0H0ZM22.4066 30.2013C21.7807 30.3215 21.5833 29.9376 21.5833 29.6092V26.2253C21.5833 25.0737 21.1794 24.3244 20.7354 23.9421C23.4827 23.6368 26.3687 22.5931 26.3687 17.8571C26.3687 16.5097 25.8892 15.409 25.0983 14.5472C25.2263 14.2357 25.6487 12.9808 24.9765 11.2835C24.9765 11.2835 23.9421 10.952 21.588 12.5476C20.6028 12.2701 19.5483 12.136 18.5 12.1298C17.4517 12.1345 16.3972 12.2701 15.412 12.5445C13.0564 10.9489 12.0204 11.2804 12.0204 11.2804C11.3513 12.9793 11.7737 14.2327 11.9017 14.5456C11.1123 15.409 10.6313 16.5082 10.6313 17.8556C10.6313 22.5792 13.5096 23.6384 16.2507 23.9513C15.8977 24.2597 15.5785 24.8023 15.4675 25.6009C14.763 25.9154 12.9793 26.4596 11.8785 24.5742C11.8785 24.5742 11.2264 23.3902 9.98692 23.3023C9.98692 23.3023 8.78442 23.2869 9.90212 24.0531C9.90212 24.0531 10.7115 24.4323 11.2727 25.8568C11.2727 25.8568 11.9865 28.0583 15.4167 27.3122V29.6077C15.4167 29.933 15.2178 30.3153 14.6027 30.2013C9.70017 28.5717 6.16667 23.9482 6.16667 18.5C6.16667 11.6874 11.6889 6.16667 18.5 6.16667C25.3111 6.16667 30.8333 11.6874 30.8333 18.5C30.8333 23.9467 27.3045 28.5686 22.4066 30.2013Z" fill="black"/>
<rect x="0.5" y="0.5" width="36" height="36" rx="5.5" stroke="#C9CDFA"/>
</svg>
