<svg width="37" height="37" viewBox="0 0 37 37" fill="none" xmlns="http://www.w3.org/2000/svg">
<path d="M31 11.2493C30.117 11.6312 29.168 11.8884 28.172 12.0043C29.189 11.411 29.97 10.471 30.337 9.3507C29.386 9.90012 28.332 10.2995 27.21 10.5148C26.313 9.58255 25.032 9 23.616 9C20.437 9 18.101 11.8894 18.819 14.8888C14.728 14.6891 11.1 12.7797 8.671 9.87772C7.381 12.0335 8.002 14.8537 10.194 16.2818C9.388 16.2565 8.628 16.0412 7.965 15.6818C7.911 17.9038 9.546 19.9827 11.914 20.4454C11.221 20.6285 10.462 20.6714 9.69 20.5272C10.316 22.4327 12.134 23.8189 14.29 23.8579C12.22 25.4389 9.612 26.1452 7 25.8452C9.179 27.2061 11.768 28 14.548 28C23.69 28 28.855 20.4785 28.543 13.7325C29.505 13.0554 30.34 12.2108 31 11.2493Z" fill="#529FEE"/>
<rect x="0.5" y="0.5" width="36" height="36" rx="5.5" stroke="#C9CDFA"/>
</svg>
