<svg width="37" height="37" viewBox="0 0 37 37" fill="none" xmlns="http://www.w3.org/2000/svg">
<rect x="0.5" y="0.5" width="36" height="36" rx="5.5" fill="#F5F6FF" stroke="#C9CDFA"/>
<path d="M16.6667 20.3333C17.0469 20.7214 17.5007 21.0296 18.0015 21.2401C18.5023 21.4505 19.0401 21.5589 19.5834 21.5589C20.1266 21.5589 20.6644 21.4505 21.1652 21.2401C21.666 21.0296 22.1198 20.7214 22.5 20.3333L27.1667 15.6667C27.9402 14.8931 28.3748 13.844 28.3748 12.75C28.3748 11.656 27.9402 10.6069 27.1667 9.83334C26.3931 9.05979 25.344 8.62521 24.25 8.62521C23.1561 8.62521 22.1069 9.05979 21.3334 9.83334L20.75 10.4167" stroke="#C9CDFA" stroke-width="2.75" stroke-linecap="round" stroke-linejoin="round"/>
<path d="M21.3333 15.6667C20.9531 15.2786 20.4993 14.9704 19.9985 14.7599C19.4977 14.5495 18.9599 14.4411 18.4166 14.4411C17.8734 14.4411 17.3356 14.5495 16.8348 14.7599C16.334 14.9704 15.8802 15.2786 15.5 15.6667L10.8333 20.3333C10.0598 21.1069 9.62518 22.156 9.62518 23.25C9.62518 24.344 10.0598 25.3931 10.8333 26.1667C11.6069 26.9402 12.656 27.3748 13.75 27.3748C14.8439 27.3748 15.8931 26.9402 16.6666 26.1667L17.25 25.5833" stroke="#C9CDFA" stroke-width="2.75" stroke-linecap="round" stroke-linejoin="round"/>
</svg>
